<svg aria-hidden="true" style="position: absolute; width: 0; height: 0; overflow: hidden;" version="1.1" xmlns="http://www.w3.org/2000/svg" xmlns:xlink="http://www.w3.org/1999/xlink">
<defs>
<symbol id="icon-Check" viewBox="0 0 32 32">
<path fill="#00b307" style="fill: var(--color1, #00b307)" d="M16 0c8.837 0 16 7.163 16 16s-7.163 16-16 16c-8.837 0-16-7.163-16-16s7.163-16 16-16z"></path>
<path fill="none" stroke="#fff" style="stroke: var(--color2, #fff)" stroke-linejoin="round" stroke-linecap="round" stroke-miterlimit="4" stroke-width="2.4" d="M23.068 11.4l-9.167 9.167-4.167-4.167"></path>
</symbol>
<symbol id="icon-Location-Icon" viewBox="0 0 32 32">
<path fill="#c0b7e8" style="fill: var(--color3, #c0b7e8)" d="M16 2.667c5.155 0 9.333 4.179 9.333 9.333 0 1.559-0.381 3.027-1.057 4.319l-8.276 14.347-8.084-13.999c-0.796-1.374-1.249-2.967-1.249-4.667 0-5.155 4.179-9.333 9.333-9.333zM16 5.333c-3.682 0-6.667 2.985-6.667 6.667 0 1.059 0.244 2.075 0.706 2.992l0.224 0.409 5.736 9.933 5.777-10.002c0.581-1.003 0.89-2.14 0.89-3.331 0-3.682-2.985-6.667-6.667-6.667zM16 8c2.209 0 4 1.791 4 4s-1.791 4-4 4c-2.209 0-4-1.791-4-4s1.791-4 4-4zM16 10.667c-0.736 0-1.333 0.597-1.333 1.333s0.597 1.333 1.333 1.333c0.736 0 1.333-0.597 1.333-1.333s-0.597-1.333-1.333-1.333z"></path>
</symbol>
<symbol id="icon-mail" viewBox="0 0 32 32">
<path fill="none" stroke="#c0b7e8" style="stroke: var(--color3, #c0b7e8)" stroke-linejoin="round" stroke-linecap="round" stroke-miterlimit="4" stroke-width="2.9538" d="M4.391 7.057c0.241-0.241 0.575-0.391 0.943-0.391h21.333c0.368 0 0.701 0.149 0.943 0.391M4.391 7.057c-0.241 0.241-0.391 0.575-0.391 0.943v16c0 0.736 0.597 1.333 1.333 1.333h21.333c0.736 0 1.333-0.597 1.333-1.333v-16c0-0.368-0.149-0.702-0.391-0.943M4.391 7.057l9.724 9.724c1.041 1.041 2.73 1.041 3.771 0l9.724-9.724"></path>
</symbol>
<symbol id="icon-phone-call" viewBox="0 0 32 32">
<path fill="none" stroke="#c0b7e8" style="stroke: var(--color3, #c0b7e8)" stroke-linejoin="round" stroke-linecap="round" stroke-miterlimit="4" stroke-width="3.2542" d="M19.333 8.667c0.983 0.192 1.959 0.625 2.667 1.333s1.142 1.684 1.333 2.667M20 4c2.042 0.227 3.88 1.215 5.333 2.667s2.437 3.292 2.667 5.333M27.999 21.969v3.613c0.006 1.381-1.236 2.534-2.631 2.409-12.035 0.009-21.369-9.411-21.359-21.365-0.126-1.387 1.022-2.624 2.401-2.625h3.62c0.586-0.006 1.153 0.201 1.597 0.582 1.262 1.084 2.074 4.761 1.762 6.223-0.244 1.141-1.395 1.94-2.177 2.721 1.718 3.015 4.219 5.512 7.24 7.226 0.782-0.781 1.582-1.929 2.726-2.173 1.467-0.312 5.169 0.501 6.248 1.772 0.383 0.451 0.586 1.026 0.571 1.617z"></path>
</symbol>
</defs>
</svg>
